<svg width="33" height="34" viewBox="0 0 33 34" fill="none" xmlns="http://www.w3.org/2000/svg">
<g filter="url(#filter0_d_8_280)">
<path d="M17 32C25.8366 32 33 24.8366 33 16C33 7.16344 25.8366 0 17 0C8.16344 0 1 7.16344 1 16C1 24.8366 8.16344 32 17 32Z" fill="#CBC2BF"/>
<path d="M20.9999 14.9333C21.4799 10.0267 19.3466 5.65333 16.6799 5.65333C13.8533 5.65333 13.1066 9.12 13.1066 11.4667C13.1066 12.48 13.2666 17.8133 16.7866 17.8133C17.5333 17.8133 19.3999 17.6 20.9999 14.9333ZM11.0799 26.2933C19.3466 26.3467 20.4666 18.7733 20.4666 18.7733C20.4666 18.7733 18.3333 20.5333 15.6666 20.5333C9.63995 20.5333 7.34661 12.64 9.74661 8.32C11.5599 5.06667 13.5333 3.46667 16.7866 3.46667C22.8133 3.46667 25.3199 9.76 25.3199 14.2933C25.3199 16.2667 24.4133 27.8933 11.0266 28.4267" fill="#130C0E"/>
</g>
<defs>
<filter id="filter0_d_8_280" x="0.5" y="0" width="32.5" height="34" filterUnits="userSpaceOnUse" color-interpolation-filters="sRGB">
<feFlood flood-opacity="0" result="BackgroundImageFix"/>
<feColorMatrix in="SourceAlpha" type="matrix" values="0 0 0 0 0 0 0 0 0 0 0 0 0 0 0 0 0 0 127 0" result="hardAlpha"/>
<feOffset dx="-0.5" dy="2"/>
<feColorMatrix type="matrix" values="0 0 0 0 0 0 0 0 0 0 0 0 0 0 0 0 0 0 1 0"/>
<feBlend mode="normal" in2="BackgroundImageFix" result="effect1_dropShadow_8_280"/>
<feBlend mode="normal" in="SourceGraphic" in2="effect1_dropShadow_8_280" result="shape"/>
</filter>
</defs>
</svg>
