<svg width="33" height="34" viewBox="0 0 33 34" fill="none" xmlns="http://www.w3.org/2000/svg">
<g filter="url(#filter0_d_8_256)">
<path d="M17 32C25.8366 32 33 24.8366 33 16C33 7.16344 25.8366 0 17 0C8.16344 0 1 7.16344 1 16C1 24.8366 8.16344 32 17 32Z" fill="#CBC2BF"/>
<path d="M19.5067 2.77333V22.6667C19.5067 25.28 21.0533 25.2267 22.0667 25.2267H22.92V27.8933H11.2933V25.2267H12.36C13.32 25.2267 14.8667 25.2267 14.8667 22.6667V9.92C14.8667 7.41333 14.0667 7.2 12.36 7.25333H11.4V4.53333H12.4667C14.3867 4.53333 15.5067 2.82667 17.4267 2.77333H19.5067Z" fill="#130C0E"/>
</g>
<defs>
<filter id="filter0_d_8_256" x="0.5" y="0" width="32.5" height="34" filterUnits="userSpaceOnUse" color-interpolation-filters="sRGB">
<feFlood flood-opacity="0" result="BackgroundImageFix"/>
<feColorMatrix in="SourceAlpha" type="matrix" values="0 0 0 0 0 0 0 0 0 0 0 0 0 0 0 0 0 0 127 0" result="hardAlpha"/>
<feOffset dx="-0.5" dy="2"/>
<feColorMatrix type="matrix" values="0 0 0 0 0 0 0 0 0 0 0 0 0 0 0 0 0 0 1 0"/>
<feBlend mode="normal" in2="BackgroundImageFix" result="effect1_dropShadow_8_256"/>
<feBlend mode="normal" in="SourceGraphic" in2="effect1_dropShadow_8_256" result="shape"/>
</filter>
</defs>
</svg>
