<svg width="33" height="34" viewBox="0 0 33 34" fill="none" xmlns="http://www.w3.org/2000/svg">
<g filter="url(#filter0_d_510_196)">
<path d="M16.9998 32C25.8363 32 32.9998 24.8366 32.9998 16C32.9998 7.16344 25.8363 0 16.9998 0C8.1632 0 0.999756 7.16344 0.999756 16C0.999756 24.8366 8.1632 32 16.9998 32Z" fill="#CBC2BF"/>
</g>
<path d="M18.0381 20.2458L16.6073 25.0282H4.83423V24.0464C5.40672 23.3933 6.67422 22.0989 8.63679 20.1645C9.7811 18.9933 10.9254 17.7658 12.0701 16.4851C12.6688 15.8317 13.1062 15.2726 13.3789 14.8083C14.0858 13.8272 14.44 12.8058 14.44 11.7434C14.44 10.7622 14.1206 9.88321 13.4806 9.10721C12.84 8.33025 12.0282 7.94273 11.0486 7.94273C8.92289 7.94273 7.25984 9.38657 6.06049 12.2758L4.95744 11.8666C6.40129 7.80609 8.66368 5.77601 11.7424 5.77601C13.2691 5.77601 14.5699 6.29281 15.6461 7.32929C16.7235 8.36545 17.2611 9.64609 17.2611 11.1712C17.2611 13.1075 16.1299 15 13.8678 16.8531L11.5792 18.7744C10.1072 20.0288 8.89471 21.1862 7.94175 22.2486C7.85984 22.3037 7.7235 22.4669 7.53248 22.7398H13.6649C14.6182 22.7398 15.3398 22.5344 15.8307 22.1261C16.24 21.7994 16.6489 21.1725 17.0563 20.2461H18.0381V20.2457V20.2458ZM17.8749 15.9533C17.8749 13.5827 18.3654 11.3888 19.3469 9.37313C20.6275 6.86625 22.3574 5.61185 24.5382 5.61185C26.6358 5.61185 28.312 6.68801 29.5664 8.84065C30.5459 10.5856 31.0364 12.6013 31.0364 14.8899C31.0364 17.2883 30.5459 19.4694 29.5664 21.432C28.2838 23.8829 26.567 25.1091 24.415 25.1091C22.3443 25.1091 20.6806 24.0614 19.4281 21.9616C18.392 20.1907 17.8749 18.1882 17.8749 15.9533ZM20.6544 14.8499C20.6544 16.8944 20.872 18.7206 21.3081 20.327C21.9613 22.8358 23.0525 24.0883 24.5782 24.0883C27.0576 24.0883 28.2988 21.5133 28.2988 16.3616C28.2988 9.98465 26.9494 6.79649 24.2521 6.79649C21.8534 6.79649 20.6547 9.27585 20.6547 14.2358V14.8499H20.6544Z" fill="#0D0F0F"/>
<defs>
<filter id="filter0_d_510_196" x="0.499756" y="0" width="32.5" height="34" filterUnits="userSpaceOnUse" color-interpolation-filters="sRGB">
<feFlood flood-opacity="0" result="BackgroundImageFix"/>
<feColorMatrix in="SourceAlpha" type="matrix" values="0 0 0 0 0 0 0 0 0 0 0 0 0 0 0 0 0 0 127 0" result="hardAlpha"/>
<feOffset dx="-0.5" dy="2"/>
<feColorMatrix type="matrix" values="0 0 0 0 0 0 0 0 0 0 0 0 0 0 0 0 0 0 1 0"/>
<feBlend mode="normal" in2="BackgroundImageFix" result="effect1_dropShadow_510_196"/>
<feBlend mode="normal" in="SourceGraphic" in2="effect1_dropShadow_510_196" result="shape"/>
</filter>
</defs>
</svg>
