<svg width="33" height="34" viewBox="0 0 33 34" fill="none" xmlns="http://www.w3.org/2000/svg">
<g filter="url(#filter0_d_8_297)">
<path d="M17 32C25.8366 32 33 24.8366 33 16C33 7.16344 25.8366 0 17 0C8.16344 0 1 7.16344 1 16C1 24.8366 8.16344 32 17 32Z" fill="#F9AA8F"/>
<path d="M30.4294 21.3174C29.2347 24.1707 26.8561 25.5947 23.3041 25.5947C22.6534 25.5947 21.9441 25.6747 21.1867 25.84C20.0454 26.0854 19.4747 26.4267 19.4747 26.8587C19.4747 26.992 19.5707 27.152 19.7574 27.328C19.9494 27.504 20.1094 27.5947 20.2481 27.5947C19.5707 27.5947 20.0294 27.616 21.6347 27.6534C23.2401 27.696 24.2427 27.712 24.6481 27.712C22.2854 29.0987 18.3334 29.7334 12.7921 29.6267C10.9734 29.6 9.41076 28.8 8.10943 27.2214C6.82943 25.728 6.19476 24.0587 6.19476 22.2134C6.19476 20.2614 6.85076 18.5974 8.17343 17.2214C9.49076 15.8507 11.1281 15.1627 13.0801 15.1627C13.5121 15.1627 14.0934 15.2587 14.8134 15.4454C15.5334 15.6374 16.0134 15.728 16.2588 15.728C17.2614 15.728 18.5147 15.312 20.0081 14.4854C21.5014 13.6587 22.2107 13.2427 22.1254 13.2427C21.8534 16.096 20.9041 18.0107 19.2721 18.9867C18.1041 19.664 17.5227 20.3307 17.5227 20.9814C17.5227 21.3867 17.7681 21.7174 18.2534 21.9574C18.6321 22.1494 19.0534 22.2454 19.5174 22.2454C20.2214 22.2454 20.9147 21.8134 21.5974 20.944C22.2747 20.0747 22.5734 19.2854 22.4934 18.5814C22.4134 17.7654 22.4667 16.7894 22.6587 15.648C22.7121 15.3227 22.9094 14.9227 23.2507 14.448C23.5921 13.9734 23.8961 13.68 24.1681 13.5734C24.1681 13.8187 24.0827 14.224 23.9014 14.7947C23.7254 15.3654 23.6347 15.7867 23.6347 16.0587C23.6347 16.656 23.7947 17.12 24.1254 17.4454C24.6161 17.2534 25.0481 16.6454 25.4267 15.6107C25.7521 14.8214 25.9441 14.064 25.9974 13.328C24.8561 13.2747 23.7627 12.7574 22.7174 11.7814C21.6721 10.8054 21.1494 9.74405 21.1494 8.60271C21.1494 8.41071 21.1761 8.22405 21.2294 8.03205C21.3894 8.27738 21.6347 8.65605 21.9601 9.17338C22.4241 9.85071 22.7761 10.192 23.0214 10.192C23.3467 10.192 23.5121 9.85071 23.5121 9.17338C23.5121 8.30405 23.2827 7.51471 22.8187 6.81071C22.3014 5.96805 21.6347 5.54671 20.8241 5.54671C20.4454 5.54671 19.8747 5.74938 19.1121 6.16005C18.3494 6.56538 17.6561 6.77338 17.0321 6.77338C16.8401 6.77338 15.9974 6.52805 14.5041 6.03738C17.1387 5.60538 18.4561 5.21071 18.4561 4.85871C18.4561 3.93605 16.6481 3.31205 13.0374 2.98671C12.6854 2.96005 12.0348 2.90671 11.0801 2.82138C11.1868 2.68805 11.9601 2.53871 13.4001 2.37338C14.6214 2.24005 15.4801 2.17071 15.9654 2.17071C22.4294 2.17071 26.5307 5.30671 28.2694 11.584C28.5681 11.3387 28.7174 10.9227 28.7174 10.3467C28.7174 9.60538 28.4987 8.66671 28.0667 7.53605C27.9014 7.09871 27.6454 6.43738 27.2934 5.55205C29.5174 8.38938 30.6321 11.0774 30.6321 13.616C30.6321 14.9547 30.3174 16.1654 29.6934 17.2587C29.2881 17.9947 28.5254 18.9387 27.4107 20.0854C26.2961 21.232 25.5387 22.1174 25.1281 22.7467C26.6214 22.3414 27.6027 22.0267 28.0614 21.808C29.0907 21.3494 30.0294 20.656 30.8721 19.728C30.8721 20.08 30.7227 20.6134 30.4241 21.3174H30.4294ZM12.6694 5.30671C12.6694 5.79738 12.3974 6.10671 11.8534 6.24538L10.7921 6.41071C10.4134 6.60271 9.85343 7.34938 9.12276 8.65071C9.04276 8.24538 8.92009 7.67471 8.75476 6.93871C8.50943 6.96538 8.10409 7.18405 7.53343 7.58938C7.28809 7.78138 6.89343 8.06405 6.34943 8.44271C6.51476 7.46671 7.05343 6.47471 7.98143 5.46671C8.95743 4.35205 9.91209 3.79738 10.8348 3.79738C12.0561 3.79738 12.6694 4.29871 12.6694 5.30671ZM19.7574 9.05605C19.7574 9.52005 19.5067 9.90405 19.0054 10.2187C18.5041 10.5334 18.0081 10.688 17.5174 10.688C16.8668 10.688 16.2801 10.32 15.7681 9.58938C15.1441 8.69338 14.5041 8.11205 13.8534 7.83471C13.9868 7.70138 14.1521 7.63205 14.3441 7.63205C14.5894 7.63205 15.0001 7.82405 15.5868 8.20271C16.1681 8.58138 16.5414 8.77338 16.7068 8.77338C16.8401 8.77338 17.0641 8.58138 17.3787 8.20271C17.6934 7.82405 18.0347 7.63205 18.4187 7.63205C19.3147 7.63205 19.7627 8.10671 19.7627 9.05605" fill="#200000"/>
</g>
<defs>
<filter id="filter0_d_8_297" x="0.5" y="0" width="32.5" height="34" filterUnits="userSpaceOnUse" color-interpolation-filters="sRGB">
<feFlood flood-opacity="0" result="BackgroundImageFix"/>
<feColorMatrix in="SourceAlpha" type="matrix" values="0 0 0 0 0 0 0 0 0 0 0 0 0 0 0 0 0 0 127 0" result="hardAlpha"/>
<feOffset dx="-0.5" dy="2"/>
<feColorMatrix type="matrix" values="0 0 0 0 0 0 0 0 0 0 0 0 0 0 0 0 0 0 1 0"/>
<feBlend mode="normal" in2="BackgroundImageFix" result="effect1_dropShadow_8_297"/>
<feBlend mode="normal" in="SourceGraphic" in2="effect1_dropShadow_8_297" result="shape"/>
</filter>
</defs>
</svg>
