<svg width="33" height="34" viewBox="0 0 33 34" fill="none" xmlns="http://www.w3.org/2000/svg">
<g filter="url(#filter0_d_8_283)">
<path d="M17 32C25.8366 32 33 24.8366 33 16C33 7.16344 25.8366 0 17 0C8.16344 0 1 7.16344 1 16C1 24.8366 8.16344 32 17 32Z" fill="#CAC5C0"/>
<path d="M12.298 5.96324V22.1037C12.298 24.0231 13.1194 24.9831 14.7597 24.9831H15.1773V26.0775H6.5802V24.9831H7.13285C8.71075 24.9831 9.50083 24.0231 9.50083 22.1037V11.5181C9.50083 9.57252 8.81125 8.59876 7.4314 8.59876H6.5802V7.50308H6.90532C8.58148 7.50308 10.0954 6.9898 11.4464 5.96292L12.298 5.96328V5.96324ZM15.4212 16.6282C15.4212 14.114 15.9479 11.802 17.002 9.69444C18.3274 7.07268 20.1396 5.76068 22.4362 5.76068C24.6541 5.76068 26.4113 6.88324 27.7085 9.1258C28.7633 10.9652 29.291 13.0877 29.291 15.4932C29.291 18.008 28.7636 20.3056 27.7085 22.3876C26.3834 24.9568 24.5863 26.2407 22.3156 26.2407C20.1262 26.2407 18.3818 25.1319 17.0829 22.9143C15.9744 21.0493 15.4212 18.954 15.4212 16.6282ZM18.3402 15.4519C18.3402 17.5895 18.57 19.5082 19.0301 21.2106C19.7332 23.833 20.8813 25.145 22.4769 25.145C25.0724 25.145 26.3697 22.442 26.3697 17.0343C26.3697 10.3562 24.9636 7.01796 22.1514 7.01796C19.6103 7.01796 18.3396 9.61156 18.3396 14.8029V15.4519H18.3402Z" fill="#0D0F0F"/>
</g>
<defs>
<filter id="filter0_d_8_283" x="0.5" y="0" width="32.5" height="34" filterUnits="userSpaceOnUse" color-interpolation-filters="sRGB">
<feFlood flood-opacity="0" result="BackgroundImageFix"/>
<feColorMatrix in="SourceAlpha" type="matrix" values="0 0 0 0 0 0 0 0 0 0 0 0 0 0 0 0 0 0 127 0" result="hardAlpha"/>
<feOffset dx="-0.5" dy="2"/>
<feColorMatrix type="matrix" values="0 0 0 0 0 0 0 0 0 0 0 0 0 0 0 0 0 0 1 0"/>
<feBlend mode="normal" in2="BackgroundImageFix" result="effect1_dropShadow_8_283"/>
<feBlend mode="normal" in="SourceGraphic" in2="effect1_dropShadow_8_283" result="shape"/>
</filter>
</defs>
</svg>
