<svg width="33" height="34" viewBox="0 0 33 34" fill="none" xmlns="http://www.w3.org/2000/svg">
<g filter="url(#filter0_d_510_201)">
<path d="M16.9998 32C25.8363 32 32.9998 24.8366 32.9998 16C32.9998 7.16344 25.8363 0 16.9998 0C8.1632 0 0.999756 7.16344 0.999756 16C0.999756 24.8366 8.1632 32 16.9998 32Z" fill="#CBC2BF"/>
</g>
<path d="M12.4016 6.14944V21.887C12.4016 23.767 13.1786 24.7082 14.7302 24.7082H15.1392V25.8106H6.76001V24.7082H7.25057C8.83074 24.7082 9.6205 23.767 9.6205 21.887V11.5446C9.6205 9.63905 8.96674 8.68417 7.65955 8.68417H6.80129V7.62112H7.1274C8.76227 7.62112 10.2343 7.1312 11.5418 6.14976L12.4016 6.14939V6.14944ZM28.7104 20.9869L27.2797 25.8518H15.3024V24.7894C15.8762 24.1357 17.1421 22.8269 19.1047 20.8643C20.2755 19.6931 21.4483 18.4394 22.6208 17.105C23.193 16.4493 23.6419 15.9056 23.9696 15.4682C24.6499 14.4339 24.9907 13.3994 24.9907 12.3632C24.9907 11.327 24.6768 10.4138 24.0506 9.62369C23.4237 8.83296 22.5917 8.43808 21.5575 8.43808C19.4035 8.43808 17.7136 9.90945 16.4877 12.8538L15.425 12.4445C16.8973 8.35649 19.1856 6.312 22.2925 6.312C23.8179 6.312 25.1267 6.83073 26.2163 7.86561C27.3056 8.90176 27.8512 10.1955 27.8512 11.7494C27.8512 13.7382 26.7203 15.6733 24.4599 17.5546L22.1296 19.4339C20.6295 20.6883 19.3901 21.8739 18.4087 22.9894C18.3274 23.0733 18.1907 23.2227 18.0013 23.4406H24.2554C25.2087 23.4406 25.9168 23.2624 26.3811 22.9082C26.8435 22.5555 27.2663 21.9139 27.6471 20.9869H28.7104Z" fill="#0D0F0F"/>
<defs>
<filter id="filter0_d_510_201" x="0.499756" y="0" width="32.5" height="34" filterUnits="userSpaceOnUse" color-interpolation-filters="sRGB">
<feFlood flood-opacity="0" result="BackgroundImageFix"/>
<feColorMatrix in="SourceAlpha" type="matrix" values="0 0 0 0 0 0 0 0 0 0 0 0 0 0 0 0 0 0 127 0" result="hardAlpha"/>
<feOffset dx="-0.5" dy="2"/>
<feColorMatrix type="matrix" values="0 0 0 0 0 0 0 0 0 0 0 0 0 0 0 0 0 0 1 0"/>
<feBlend mode="normal" in2="BackgroundImageFix" result="effect1_dropShadow_510_201"/>
<feBlend mode="normal" in="SourceGraphic" in2="effect1_dropShadow_510_201" result="shape"/>
</filter>
</defs>
</svg>
