<svg width="32" height="32" viewBox="0 0 32 32" fill="none" xmlns="http://www.w3.org/2000/svg">
<path d="M16 32C24.8366 32 32 24.8366 32 16C32 7.16344 24.8366 0 16 0C7.16344 0 0 7.16344 0 16C0 24.8366 7.16344 32 16 32Z" fill="#CBC2BF"/>
<path d="M27.3065 18.8534H15.7865L20.0052 15.8507C18.4372 14.608 16.6238 13.984 14.5705 13.984C13.5412 13.984 12.8372 14.1813 12.4638 14.5707C12.0852 14.9653 11.8932 15.6747 11.8932 16.6987C11.8932 19.536 13.3545 22.5654 16.2772 25.7867L12.9545 29.152C9.08785 24.448 7.15186 20.24 7.15186 16.5387C7.15186 14.32 7.81852 12.5547 9.15719 11.2427C10.4958 9.93067 12.2772 9.27467 14.4905 9.27467C17.1945 9.27467 20.1438 10.304 23.3385 12.3573L25.8132 8.13867L27.3172 18.848" fill="#130C0E"/>
</svg>
