<svg width="33" height="34" viewBox="0 0 33 34" fill="none" xmlns="http://www.w3.org/2000/svg">
<g filter="url(#filter0_d_8_329)">
<path d="M17 32C25.8366 32 33 24.8366 33 16C33 7.16344 25.8366 0 17 0C8.16344 0 1 7.16344 1 16C1 24.8366 8.16344 32 17 32Z" fill="#CBC2BF"/>
<path d="M28.3066 18.8534H16.7866L21.0052 15.8507C19.4372 14.608 17.6239 13.984 15.5706 13.984C14.5412 13.984 13.8372 14.1814 13.4639 14.5707C13.0852 14.9654 12.8932 15.6747 12.8932 16.6987C12.8932 19.536 14.3546 22.5654 17.2772 25.7867L13.9546 29.1521C10.0879 24.4481 8.15192 20.24 8.15192 16.5387C8.15192 14.32 8.81858 12.5547 10.1572 11.2427C11.4959 9.9307 13.2772 9.2747 15.4906 9.2747C18.1946 9.2747 21.1439 10.304 24.3386 12.3574L26.8132 8.13869L28.3172 18.848" fill="#130C0E"/>
</g>
<defs>
<filter id="filter0_d_8_329" x="0.5" y="0" width="32.5" height="34" filterUnits="userSpaceOnUse" color-interpolation-filters="sRGB">
<feFlood flood-opacity="0" result="BackgroundImageFix"/>
<feColorMatrix in="SourceAlpha" type="matrix" values="0 0 0 0 0 0 0 0 0 0 0 0 0 0 0 0 0 0 127 0" result="hardAlpha"/>
<feOffset dx="-0.5" dy="2"/>
<feColorMatrix type="matrix" values="0 0 0 0 0 0 0 0 0 0 0 0 0 0 0 0 0 0 1 0"/>
<feBlend mode="normal" in2="BackgroundImageFix" result="effect1_dropShadow_8_329"/>
<feBlend mode="normal" in="SourceGraphic" in2="effect1_dropShadow_8_329" result="shape"/>
</filter>
</defs>
</svg>
