<svg width="33" height="34" viewBox="0 0 33 34" fill="none" xmlns="http://www.w3.org/2000/svg">
<g filter="url(#filter0_d_8_277)">
<path d="M17 32C25.8366 32 33 24.8366 33 16C33 7.16344 25.8366 0 17 0C8.16344 0 1 7.16344 1 16C1 24.8366 8.16344 32 17 32Z" fill="#CBC2BF"/>
<path d="M17.4267 26.2933C18.8667 26.2933 21.96 25.3333 21.96 22.5067C21.96 20.5867 20.5734 18.7733 15.6667 16.7467C13.16 18.3467 12.4134 20.0533 12.4134 21.4933C12.4134 24.8 15.0267 26.2933 17.3734 26.2933H17.4267ZM21.2134 9.54667C21.2134 7.62667 19.6134 5.65334 16.9467 5.65334C14.3334 5.65334 13.0534 7.41334 13.0534 8.74667C13.0534 11.2 15.0267 11.8933 18.3334 13.4933C19.1867 13.0667 21.16 12.1067 21.16 9.6L21.2134 9.54667ZM17.48 28.4267C12.6267 28.4267 8.84003 25.7067 8.84003 21.76C8.84003 17.8667 13.4267 15.6267 13.4267 15.6267C12.3067 14.9333 9.37336 13.2267 9.37336 9.97334C9.37336 4.69334 14.6534 3.36 17.3734 3.36C23.1334 3.36 24.7334 8.05334 24.7334 9.28C24.7334 11.9467 22.3334 13.8133 20.7334 14.5067C20.7334 14.5067 25.2134 16.2667 25.2134 21.3867C25.2134 26.0267 20.7867 28.4267 17.48 28.4267Z" fill="#130C0E"/>
</g>
<defs>
<filter id="filter0_d_8_277" x="0.5" y="0" width="32.5" height="34" filterUnits="userSpaceOnUse" color-interpolation-filters="sRGB">
<feFlood flood-opacity="0" result="BackgroundImageFix"/>
<feColorMatrix in="SourceAlpha" type="matrix" values="0 0 0 0 0 0 0 0 0 0 0 0 0 0 0 0 0 0 127 0" result="hardAlpha"/>
<feOffset dx="-0.5" dy="2"/>
<feColorMatrix type="matrix" values="0 0 0 0 0 0 0 0 0 0 0 0 0 0 0 0 0 0 1 0"/>
<feBlend mode="normal" in2="BackgroundImageFix" result="effect1_dropShadow_8_277"/>
<feBlend mode="normal" in="SourceGraphic" in2="effect1_dropShadow_8_277" result="shape"/>
</filter>
</defs>
</svg>
