<svg width="33" height="34" viewBox="0 0 33 34" fill="none" xmlns="http://www.w3.org/2000/svg">
<g filter="url(#filter0_d_8_303)">
<path d="M17 32C25.8366 32 33 24.8366 33 16C33 7.16344 25.8366 0 17 0C8.16344 0 1 7.16344 1 16C1 24.8366 8.16344 32 17 32Z" fill="#FFFBD5"/>
<path d="M32.2639 18.2613C30.1626 17.0773 28.8186 16.4853 28.2266 16.4853C27.7946 16.4853 27.4586 16.816 27.2186 17.4773C26.9786 18.1386 26.4932 18.464 25.7679 18.464C25.4692 18.464 24.8666 18.3573 23.9492 18.144C23.4372 18.9226 23.1812 19.424 23.1812 19.6373C23.1812 19.936 23.3999 20.2826 23.8426 20.688C24.2852 21.0933 24.6532 21.2906 24.9572 21.2906C25.1492 21.2906 25.4106 21.2533 25.7412 21.168C26.0719 21.088 26.2906 21.0453 26.4026 21.0453C26.7332 21.0453 26.8986 21.6533 26.8986 22.864C26.8986 24.0213 26.6319 25.7973 26.0932 28.192C25.3946 25.4453 24.6532 24.0746 23.8746 24.0746C23.7679 24.0746 23.5439 24.1546 23.2079 24.32C22.8719 24.48 22.6212 24.56 22.4612 24.56C21.6826 24.56 20.9839 23.8453 20.3599 22.4213C19.1226 22.608 18.5039 23.2426 18.5039 24.32C18.5039 24.8586 18.7546 25.2906 19.2506 25.6106C19.7466 25.936 19.9972 26.1653 19.9972 26.2986C19.9972 27.024 18.9359 28.144 16.8079 29.648C15.6772 30.4533 14.8986 31.0186 14.4666 31.344C14.8399 30.8586 15.2186 30.2293 15.5972 29.4453C16.0292 28.56 16.2426 27.872 16.2426 27.3866C16.2426 27.12 15.9332 26.7413 15.3146 26.256C14.6959 25.7706 14.3866 25.2586 14.3866 24.72C14.3866 24.2613 14.5466 23.696 14.8719 23.024C14.5199 22.6186 14.1039 22.416 13.6186 22.416C12.5412 22.416 12.0026 22.768 12.0026 23.4666C12.0026 22.9813 12.0026 23.344 12.0026 24.5546C12.0292 25.4453 11.3572 25.888 9.98124 25.888C8.93057 25.888 7.17057 25.6426 4.69057 25.1626C7.49057 24.464 8.88791 23.6533 8.88791 22.7413C8.88791 22.848 8.83457 22.528 8.72791 21.7706C8.62124 20.9386 9.21324 20.1813 10.5039 19.5093C10.2639 18.272 9.61857 17.6533 8.56791 17.6533C8.40791 17.6533 8.10924 17.936 7.68257 18.5013C7.25057 19.0666 6.85057 19.3493 6.47191 19.3493C5.82657 19.3493 4.98924 18.6506 3.97057 17.248C3.48524 16.5493 2.74391 15.5146 1.75191 14.1386C2.37057 14.464 2.98924 14.784 3.60791 15.1093C4.41324 15.488 5.06391 15.6746 5.54391 15.6746C5.92257 15.6746 6.29057 15.344 6.65324 14.6826C7.01591 14.0213 7.49591 13.6906 8.08791 13.6906C8.16791 13.6906 8.70657 13.8506 9.70391 14.176C10.2159 13.3973 10.4719 12.816 10.4719 12.4373C10.4719 12.112 10.2746 11.744 9.88524 11.328C9.49591 10.912 9.13857 10.704 8.81324 10.704C8.67991 10.704 8.47191 10.7466 8.18924 10.8266C7.90657 10.9066 7.69857 10.9493 7.56524 10.9493C7.07991 10.9493 6.83991 10.3413 6.83991 9.13064C6.83991 8.80531 7.14924 6.96531 7.76791 3.59998C7.74124 4.00531 7.91724 4.75731 8.29057 5.86131C8.74924 7.20531 9.28791 7.88264 9.90657 7.88264C10.0132 7.88264 10.2319 7.80264 10.5519 7.64264C10.8772 7.48264 11.1279 7.40264 11.3199 7.40264C11.9386 7.40264 12.4506 7.75464 12.8559 8.45331L13.4639 9.54131C14.0292 9.54131 14.4986 9.33864 14.8772 8.93864C15.2559 8.53331 15.4426 8.04798 15.4426 7.48264C15.4426 6.89064 15.1919 6.43731 14.6959 6.12798C14.1946 5.81864 13.9492 5.58398 13.9492 5.42398C13.9492 4.85864 14.8399 3.90398 16.6159 2.55998C18.0399 1.48264 18.9732 0.85331 19.3999 0.66131C18.2426 2.22398 17.6612 3.36531 17.6612 4.09064C17.6612 4.46931 17.8906 4.86931 18.3492 5.30131C18.9146 5.81331 19.2399 6.17598 19.3199 6.38931C19.5866 7.00798 19.5599 7.85598 19.2399 8.93331C19.9652 9.44531 20.5199 9.70131 20.8932 9.70131C21.6719 9.70131 22.0612 9.29598 22.0612 8.49064C22.0612 8.41064 22.0292 8.15464 21.9599 7.72264C21.8906 7.29064 21.8746 7.05064 21.9012 6.99731C22.0079 6.61864 22.7492 6.43198 24.1199 6.43198C24.9839 6.43198 26.7706 6.67198 29.4906 7.15731C28.8986 7.31731 28.0079 7.56264 26.8239 7.88264C25.7466 8.20798 25.2079 8.57064 25.2079 8.97064C25.2079 9.15731 25.2772 9.48264 25.4106 9.94131C25.5439 10.4 25.6132 10.736 25.6132 10.9493C25.6132 11.328 25.3732 11.6746 24.8879 12L23.5172 12.9706C23.8426 13.5626 24.0559 13.9146 24.1626 14.0213C24.4292 14.3466 24.7972 14.5066 25.2506 14.5066C25.5759 14.5066 25.8692 14.224 26.1412 13.6586C26.4079 13.0933 26.8399 12.8106 27.4319 12.8106C28.1572 12.8106 28.9786 13.4826 29.8959 14.832C30.4079 15.5893 31.2026 16.7306 32.2746 18.2666L32.2639 18.2613ZM23.3146 15.9253C23.3146 14.2026 22.6799 12.7093 21.4159 11.4453C20.1519 10.1813 18.6586 9.54664 16.9359 9.54664C15.1866 9.54664 13.6772 10.1706 12.4132 11.424C11.1492 12.6773 10.5039 14.176 10.4772 15.9253C10.4506 17.648 11.0906 19.136 12.3972 20.384C13.7039 21.6373 15.2186 22.2613 16.9412 22.2613C18.7706 22.2613 20.3012 21.664 21.5226 20.464C22.7492 19.2693 23.3466 17.7546 23.3199 15.9253H23.3146ZM22.7119 15.9253C22.7119 17.568 22.1626 18.928 21.0586 20C19.9546 21.0773 18.5839 21.616 16.9412 21.616C15.3519 21.616 13.9919 21.0666 12.8666 19.9626C11.7359 18.8586 11.1706 17.5146 11.1706 15.9253C11.1706 14.3626 11.7412 13.024 12.8879 11.9093C14.0346 10.7946 15.3839 10.2346 16.9466 10.2346C18.5092 10.2346 19.8586 10.8 21.0052 11.9306C22.1466 13.0613 22.7226 14.3946 22.7226 15.9253" fill="#211D15"/>
</g>
<defs>
<filter id="filter0_d_8_303" x="0.5" y="0" width="32.5" height="34" filterUnits="userSpaceOnUse" color-interpolation-filters="sRGB">
<feFlood flood-opacity="0" result="BackgroundImageFix"/>
<feColorMatrix in="SourceAlpha" type="matrix" values="0 0 0 0 0 0 0 0 0 0 0 0 0 0 0 0 0 0 127 0" result="hardAlpha"/>
<feOffset dx="-0.5" dy="2"/>
<feColorMatrix type="matrix" values="0 0 0 0 0 0 0 0 0 0 0 0 0 0 0 0 0 0 1 0"/>
<feBlend mode="normal" in2="BackgroundImageFix" result="effect1_dropShadow_8_303"/>
<feBlend mode="normal" in="SourceGraphic" in2="effect1_dropShadow_8_303" result="shape"/>
</filter>
</defs>
</svg>
