<svg width="33" height="34" viewBox="0 0 33 34" fill="none" xmlns="http://www.w3.org/2000/svg">
<g filter="url(#filter0_d_1193_445196)">
<path d="M17 32C25.8366 32 33 24.8366 33 16C33 7.16344 25.8366 0 17 0C8.16344 0 1 7.16344 1 16C1 24.8366 8.16344 32 17 32Z" fill="#CBC2BF"/>
<path d="M19.0875 25V24.0212C20.4882 23.8665 21.1899 23.461 21.1899 22.8094C21.1899 22.3397 21.0026 21.87 20.6291 21.4004L16.7548 16.6474L13.6951 20.2429C12.9297 21.1255 12.5446 21.8555 12.5446 22.4261C12.5446 23.3096 13.2457 23.8425 14.6503 24.0254V25H7.18913V24.0242C8.13387 23.8434 8.93655 23.504 9.60222 23.01C10.0606 22.647 10.6854 22.0093 11.4741 21.0988L16.0754 15.7802L10.754 9.34994C10.0645 8.51958 9.52657 7.97452 9.14533 7.71416C8.63186 7.35048 7.91794 7.11684 7 7.01323V6H15.7979V6.97523C14.4716 7.23559 13.8095 7.63845 13.8095 8.1847C13.8095 8.54986 13.9864 8.95242 14.3435 9.39358L17.8628 13.6454L20.6946 10.1747C21.2042 9.55003 21.4601 9.00467 21.4601 8.53591C21.4601 7.75542 20.8331 7.24747 19.5834 7.01323V6H26.5862V6.97702C25.9741 7.10734 25.5518 7.22461 25.3263 7.3297C24.5609 7.69456 23.3915 8.77519 21.8127 10.5716C21.5589 10.8593 20.4864 12.1726 18.5993 14.5156L24.2514 21.4515C25.4764 22.959 26.725 23.8178 28 24.0242V25H19.0875Z" fill="#0D0F0F"/>
</g>
<defs>
<filter id="filter0_d_1193_445196" x="0.5" y="0" width="32.5" height="34" filterUnits="userSpaceOnUse" color-interpolation-filters="sRGB">
<feFlood flood-opacity="0" result="BackgroundImageFix"/>
<feColorMatrix in="SourceAlpha" type="matrix" values="0 0 0 0 0 0 0 0 0 0 0 0 0 0 0 0 0 0 127 0" result="hardAlpha"/>
<feOffset dx="-0.5" dy="2"/>
<feColorMatrix type="matrix" values="0 0 0 0 0 0 0 0 0 0 0 0 0 0 0 0 0 0 1 0"/>
<feBlend mode="normal" in2="BackgroundImageFix" result="effect1_dropShadow_1193_445196"/>
<feBlend mode="normal" in="SourceGraphic" in2="effect1_dropShadow_1193_445196" result="shape"/>
</filter>
</defs>
</svg>
