<?xml version="1.0" encoding="UTF-8"?>
<svg width="32px" height="32px" viewBox="0 0 32 32" version="1.1" xmlns="http://www.w3.org/2000/svg" xmlns:xlink="http://www.w3.org/1999/xlink">
    <title>T</title>
    <g id="Page-1" stroke="none" stroke-width="1" fill="none" fill-rule="evenodd">
        <g id="T" fill-rule="nonzero">
            <path d="M16,32 C24.8366,32 32,24.8366 32,16 C32,7.16344 24.8366,0 16,0 C7.16344,0 0,7.16344 0,16 C0,24.8366 7.16344,32 16,32 Z" id="Path" fill="#CBC2BF"></path>
            <g id="g163" transform="translate(6, 6)" fill="#0D0F0F">
                <path d="M12.0874794,19 L12.0874794,18.0212031 C13.4882141,17.8665313 14.1899217,17.461 14.1899217,16.8093594 C14.1899217,16.3397031 14.0025813,15.8700469 13.6290917,15.4003906 L9.75480797,10.6474219 L6.69511261,14.242875 C5.92966756,15.1254844 5.54456232,15.8555 5.54456232,16.4260938 C5.54456232,17.3095938 6.24567425,17.8424844 7.65028082,18.0253594 L7.65028082,19 L0.189127475,19 L0.189127475,18.0241719 C1.13387133,17.843375 1.93654621,17.5040469 2.60221535,17.0100469 C3.06058887,16.6469687 3.68545413,16.0092813 4.4741306,15.0987656 L9.07543825,9.78025 L3.753957,3.3499375 C3.06446077,2.51957812 2.52656436,1.97451562 2.14533103,1.71415625 C1.63185738,1.35048437 0.91793839,1.11684375 0,1.01323437 L0,0 L8.79785273,0 L8.79785273,0.975234375 C7.47157769,1.23559375 6.80948261,1.63845312 6.80948261,2.18470313 C6.80948261,2.54985938 6.98639871,2.95242188 7.34350712,3.39357813 L10.8627673,7.64542188 L13.6946162,4.17465625 C14.204218,3.55003125 14.4600613,3.00467187 14.4600613,2.53590625 C14.4600613,1.75542187 13.8331111,1.24746875 12.5833806,1.01323437 L12.5833806,0 L19.5861604,0 L19.5861604,0.977015625 C18.9741022,1.10734375 18.5517672,1.22460938 18.3263034,1.32970312 C17.5608583,1.6945625 16.3915442,2.7751875 14.8127021,4.57157813 C14.5589437,4.85925 13.4864271,6.172625 11.5993221,8.5155625 L17.2514041,15.4514531 C18.476414,16.9589844 19.7249532,17.8178438 21,18.0241719 L21,19 L12.0874794,19 L12.0874794,19 Z" id="path165"></path>
            </g>
        </g>
    </g>
</svg>