<svg width="33" height="34" viewBox="0 0 33 34" fill="none" xmlns="http://www.w3.org/2000/svg">
<g filter="url(#filter0_d_510_193)">
<path d="M16.9998 32C25.8363 32 32.9998 24.8366 32.9998 16C32.9998 7.16344 25.8363 0 16.9998 0C8.1632 0 0.999756 7.16344 0.999756 16C0.999756 24.8366 8.1632 32 16.9998 32Z" fill="#CBC2BF"/>
</g>
<path d="M12.8919 5.94433V22.0099C12.8919 23.9178 13.6951 24.8704 15.3037 24.8704H15.7124V25.9747H7.12866V24.8704H7.7005C9.30914 24.8704 10.1123 23.9174 10.1123 22.0099V11.463C10.1123 9.52865 9.43043 8.56065 8.06786 8.56065H7.20962V7.45793H7.53698C9.19875 7.45793 10.7107 6.95393 12.0746 5.94465L12.8919 5.94429V5.94433ZM25.9319 17.391C24.433 18.8083 22.9351 19.5168 21.4362 19.5168C19.8013 19.5168 18.4788 18.8483 17.4704 17.5126C16.5706 16.3418 16.1213 14.911 16.1213 13.2214C16.1213 11.3949 16.6519 9.76001 17.7146 8.31617C18.9133 6.76289 20.3994 5.98625 22.1706 5.98625C24.3236 5.98625 26.0263 6.91265 27.2801 8.76577C28.4513 10.4288 29.0381 12.3766 29.0381 14.6106C29.0381 17.8275 27.9821 20.5318 25.8704 22.7254C23.7578 24.919 21.1085 26.0301 17.9197 26.0566V24.9939C18.9008 24.9392 19.6778 24.8291 20.2496 24.6666C23.4938 23.6848 25.3863 21.2598 25.9319 17.391ZM26.137 15.3866C26.1632 14.9526 26.1783 14.5434 26.1783 14.161C26.1783 12.5808 25.9056 11.137 25.36 9.82817C24.6244 8.11169 23.5888 7.25313 22.2525 7.25313C21.082 7.25313 20.2218 7.83873 19.6781 9.01121C19.2138 9.96448 18.9824 11.0822 18.9824 12.3629C18.9824 13.7517 19.2007 14.9526 19.6362 15.9587C20.2087 17.2944 21.1088 17.9632 22.3344 17.9632C23.8064 17.9632 25.0736 17.105 26.137 15.3866Z" fill="#0D0F0F"/>
<defs>
<filter id="filter0_d_510_193" x="0.499756" y="0" width="32.5" height="34" filterUnits="userSpaceOnUse" color-interpolation-filters="sRGB">
<feFlood flood-opacity="0" result="BackgroundImageFix"/>
<feColorMatrix in="SourceAlpha" type="matrix" values="0 0 0 0 0 0 0 0 0 0 0 0 0 0 0 0 0 0 127 0" result="hardAlpha"/>
<feOffset dx="-0.5" dy="2"/>
<feColorMatrix type="matrix" values="0 0 0 0 0 0 0 0 0 0 0 0 0 0 0 0 0 0 1 0"/>
<feBlend mode="normal" in2="BackgroundImageFix" result="effect1_dropShadow_510_193"/>
<feBlend mode="normal" in="SourceGraphic" in2="effect1_dropShadow_510_193" result="shape"/>
</filter>
</defs>
</svg>
