<svg width="33" height="34" viewBox="0 0 33 34" fill="none" xmlns="http://www.w3.org/2000/svg">
<g filter="url(#filter0_d_8_294)">
<path d="M17 32C25.8366 32 33 24.8366 33 16C33 7.16344 25.8366 0 17 0C8.16344 0 1 7.16344 1 16C1 24.8366 8.16344 32 17 32Z" fill="#9BD3AE"/>
<path d="M31.0051 17.9946C31.0051 18.528 30.7971 19.008 30.3865 19.4346C29.9758 19.8613 29.5011 20.0746 28.9678 20.0746C28.1145 20.0746 27.4905 19.6746 27.0905 18.8746L25.2131 18.7946C24.8131 18.7946 24.0238 18.9706 22.8558 19.3173C21.6025 19.664 20.8825 19.9413 20.6958 20.1546C20.4025 20.4746 20.1625 21.2213 19.9758 22.3946C19.8158 23.3546 19.7358 24.0586 19.7358 24.512C19.7358 25.232 19.8478 25.76 20.0771 26.0906C20.3065 26.4213 20.7705 26.704 21.4745 26.928C22.1785 27.152 22.6158 27.28 22.7758 27.3066C22.8825 27.3066 23.0531 27.296 23.2985 27.2693H23.7785C24.1251 27.2693 24.4825 27.3226 24.8558 27.4293C25.3891 27.5893 25.6185 27.8026 25.5385 28.0693C25.1651 28.016 24.5145 28.096 23.5811 28.3093L24.7011 28.8693C24.7011 29.1893 24.2478 29.3493 23.3411 29.3493C23.1011 29.3493 22.7758 29.296 22.3598 29.1893C21.9491 29.0826 21.6718 29.0293 21.5385 29.0293H21.0211C20.9945 29.296 20.9145 29.696 20.7811 30.2293C20.3278 30.2026 19.7945 29.936 19.1811 29.4293C18.5678 28.9226 18.1838 28.672 18.0238 28.672C17.8638 28.672 17.6345 28.928 17.3465 29.4293C17.0531 29.936 16.9091 30.2826 16.9091 30.4693C16.5625 30.2826 16.2691 29.936 16.0291 29.4293C15.9225 29.0826 15.8051 28.736 15.6718 28.3893C15.4051 28.416 14.9145 28.976 14.1945 30.0693H13.9918C13.9385 29.9893 13.7358 29.4293 13.3945 28.3893C12.5678 28.1226 11.7945 27.9893 11.0745 27.9893C10.7278 27.9893 10.1945 28.0693 9.47448 28.2293L8.35448 28.1493C8.51448 27.9893 8.97848 27.6853 9.75181 27.232C10.6585 26.6986 11.3518 26.432 11.8318 26.432C11.9118 26.432 12.0185 26.448 12.1518 26.4746C12.2851 26.5013 12.3918 26.5173 12.4718 26.5173C12.6585 26.5173 12.9571 26.416 13.3731 26.2186C13.7838 26.0213 14.0238 25.84 14.0931 25.68C14.1625 25.52 14.1945 25.104 14.1945 24.4426C14.1945 22.9226 13.7945 21.792 12.9945 21.0453C12.3011 20.3786 11.1545 19.8986 9.55448 19.6053C9.12781 21.1253 7.92781 21.8826 5.95981 21.8826C5.31981 21.8826 4.67981 21.4986 4.03981 20.7253C3.38381 19.936 3.06381 19.232 3.06381 18.592C3.06381 17.6053 3.47448 16.7946 4.30115 16.1546C3.63448 15.4613 3.30381 14.7573 3.30381 14.0373C3.30381 13.3706 3.51181 12.784 3.92248 12.2773C4.33315 11.7706 4.87715 11.4773 5.54381 11.3973C5.49048 10.544 5.76781 9.95731 6.38115 9.63731C6.08781 9.34398 5.94381 8.82664 5.94381 8.07998C5.94381 7.19998 6.23715 6.46931 6.82381 5.88264C7.41048 5.29598 8.14115 5.00264 9.02115 5.00264C9.98115 5.00264 10.7651 5.33864 11.3785 6.00531C12.1518 3.36531 13.8158 2.04798 16.3758 2.04798C17.7091 2.04798 18.8825 2.58131 19.8958 3.64798C20.2691 4.04798 20.4558 4.26131 20.4558 4.28798C20.1358 4.28798 20.2958 4.22931 20.9358 4.10664C21.5758 3.98931 22.0398 3.92531 22.3331 3.92531C23.3731 3.92531 24.2905 4.30931 25.0905 5.08264C25.7838 5.77598 26.2638 6.65598 26.5305 7.72264C26.7171 7.74931 27.0105 7.82931 27.4105 7.96264C27.9971 8.25598 28.2905 8.76264 28.2905 9.48264C28.2905 9.61598 28.1838 9.87198 27.9705 10.24C29.6771 11.2 30.5305 12.5333 30.5305 14.24C30.5305 14.72 30.3438 15.3866 29.9705 16.24C30.6638 16.64 31.0105 17.2266 31.0105 18L31.0051 17.9946ZM14.5411 19.76V19.2426C14.5411 18.6293 14.2425 18.0693 13.6398 17.5626C13.0425 17.056 12.4345 16.8053 11.8211 16.8053C11.0745 16.8053 10.3811 16.976 9.74115 17.3226C11.1545 17.2426 12.7545 18.0586 14.5358 19.76H14.5411ZM13.8158 14.8053C13.4158 14.352 13.0691 13.888 12.7758 13.408C11.6558 13.7013 11.0958 14.032 11.0958 14.4053C11.4158 14.3786 11.8798 14.4373 12.4931 14.5866C13.1065 14.736 13.5438 14.8053 13.8158 14.8053ZM16.2531 13.568V11.808C15.6131 11.7013 15.2238 11.648 15.0958 11.648V12.2453L16.2531 13.5626V13.568ZM21.4478 12.4426C21.1278 12.3093 20.5305 12.0426 19.6505 11.6426V15.0826C20.9038 14.3626 21.5011 13.4826 21.4478 12.4426ZM23.6451 17.1626L22.7651 16.0853C22.2318 16.4586 21.6931 16.8373 21.1438 17.2266C20.5945 17.6106 20.1251 18.048 19.7251 18.528C20.9251 17.888 22.2318 17.4346 23.6398 17.168" fill="#00160B"/>
</g>
<defs>
<filter id="filter0_d_8_294" x="0.5" y="0" width="32.5" height="34" filterUnits="userSpaceOnUse" color-interpolation-filters="sRGB">
<feFlood flood-opacity="0" result="BackgroundImageFix"/>
<feColorMatrix in="SourceAlpha" type="matrix" values="0 0 0 0 0 0 0 0 0 0 0 0 0 0 0 0 0 0 127 0" result="hardAlpha"/>
<feOffset dx="-0.5" dy="2"/>
<feColorMatrix type="matrix" values="0 0 0 0 0 0 0 0 0 0 0 0 0 0 0 0 0 0 1 0"/>
<feBlend mode="normal" in2="BackgroundImageFix" result="effect1_dropShadow_8_294"/>
<feBlend mode="normal" in="SourceGraphic" in2="effect1_dropShadow_8_294" result="shape"/>
</filter>
</defs>
</svg>
