<svg width="33" height="34" viewBox="0 0 33 34" fill="none" xmlns="http://www.w3.org/2000/svg">
<g filter="url(#filter0_d_510_200)">
<path d="M16.9998 32C25.8363 32 32.9998 24.8366 32.9998 16C32.9998 7.16344 25.8363 0 16.9998 0C8.1632 0 0.999756 7.16344 0.999756 16C0.999756 24.8366 8.1632 32 16.9998 32Z" fill="#CBC2BF"/>
</g>
<path d="M13.1494 6.33311V21.8669C13.1494 23.6931 13.9264 24.6045 15.4797 24.6045H15.8473V25.6675H7.5907V24.6045H8.12286C9.70302 24.6045 10.4928 23.6931 10.4928 21.8669V11.6874C10.4928 9.80799 9.8243 8.86687 8.49022 8.86687H7.67166V7.80575H7.99934C9.60606 7.80575 11.0515 7.31455 12.3321 6.33311H13.1494ZM20.0988 16.6342L19.6083 15.7341L19.9772 15.5289C21.2032 14.7677 22.3411 13.9977 23.3904 13.2202C24.438 12.4438 24.9638 11.5658 24.9638 10.584C24.9638 9.90271 24.7043 9.33663 24.1872 8.88767C23.6697 8.43711 23.096 8.2128 22.4707 8.2128C20.8889 8.2128 19.2272 9.16703 17.4825 11.0752L16.6656 10.4614C18.4636 7.73631 20.671 6.37279 23.287 6.37279C24.4313 6.37279 25.3996 6.65919 26.1894 7.23167C27.1161 7.86048 27.5801 8.71807 27.5801 9.80799C27.5801 10.5718 27.2524 11.32 26.5987 12.0547C26.2163 12.464 25.5625 13.0227 24.6361 13.7315L24.2684 14.0589C24.4316 14.0326 24.6361 14.0176 24.8822 14.0176C26.0816 14.0176 27.0614 14.4752 27.8246 15.3862C28.5881 16.2989 28.9689 17.3424 28.9689 18.5129C28.9689 20.5849 28.0972 22.3017 26.3523 23.6637C24.7721 24.9712 22.9324 25.6269 20.8355 25.6269C18.8992 25.6269 17.3875 25.2176 16.2979 24.3993L16.87 23.5824C18.1507 24.1811 19.3216 24.4825 20.3843 24.4825C21.911 24.4825 23.2736 23.9789 24.4726 22.9689C25.672 21.9616 26.2707 20.7072 26.2707 19.2083C26.2707 18.2003 25.9712 17.3427 25.3724 16.6339C24.7718 15.9251 23.9817 15.5709 23.0006 15.5709C22.1296 15.5712 21.1616 15.9257 20.0988 16.6342Z" fill="#0D0F0F"/>
<defs>
<filter id="filter0_d_510_200" x="0.499756" y="0" width="32.5" height="34" filterUnits="userSpaceOnUse" color-interpolation-filters="sRGB">
<feFlood flood-opacity="0" result="BackgroundImageFix"/>
<feColorMatrix in="SourceAlpha" type="matrix" values="0 0 0 0 0 0 0 0 0 0 0 0 0 0 0 0 0 0 127 0" result="hardAlpha"/>
<feOffset dx="-0.5" dy="2"/>
<feColorMatrix type="matrix" values="0 0 0 0 0 0 0 0 0 0 0 0 0 0 0 0 0 0 1 0"/>
<feBlend mode="normal" in2="BackgroundImageFix" result="effect1_dropShadow_510_200"/>
<feBlend mode="normal" in="SourceGraphic" in2="effect1_dropShadow_510_200" result="shape"/>
</filter>
</defs>
</svg>
