<svg width="33" height="34" viewBox="0 0 33 34" fill="none" xmlns="http://www.w3.org/2000/svg">
<g filter="url(#filter0_d_8_300)">
<path d="M17 32C25.8366 32 33 24.8366 33 16C33 7.16344 25.8366 0 17 0C8.16344 0 1 7.16344 1 16C1 24.8366 8.16344 32 17 32Z" fill="#AAE0FA"/>
<path d="M22.5957 26.7904C21.0638 28.3494 19.177 29.1287 16.9354 29.1287C14.4197 29.1287 12.424 28.2679 10.9477 26.5452C9.55302 24.9046 8.85596 22.8134 8.85596 20.2711C8.85596 17.5372 10.0454 14.4193 12.424 10.9196C14.3642 8.04953 16.6474 5.53401 19.2725 3.37401C18.8895 5.12409 18.6987 6.36761 18.6987 7.10585C18.6987 8.80153 19.2312 10.4553 20.2975 12.0685C21.6101 13.9821 22.6073 15.405 23.2916 16.3335C24.3578 17.9473 24.8909 19.5191 24.8909 21.0492C24.891 23.319 24.1258 25.2327 22.5955 26.7905L22.5957 26.7904ZM22.5542 18.0348C22.1443 17.1191 21.6656 16.511 21.1187 16.2097C21.2006 16.3742 21.2419 16.6065 21.2419 16.9073C21.2419 17.4817 21.078 18.3015 20.7494 19.3676L20.2169 21.0082C20.2169 21.965 20.6944 22.4438 21.6518 22.4438C22.663 22.4438 23.1692 21.7734 23.1692 20.4338C23.1692 19.751 22.9644 18.9516 22.5542 18.0345" fill="#061922"/>
</g>
<defs>
<filter id="filter0_d_8_300" x="0.5" y="0" width="32.5" height="34" filterUnits="userSpaceOnUse" color-interpolation-filters="sRGB">
<feFlood flood-opacity="0" result="BackgroundImageFix"/>
<feColorMatrix in="SourceAlpha" type="matrix" values="0 0 0 0 0 0 0 0 0 0 0 0 0 0 0 0 0 0 127 0" result="hardAlpha"/>
<feOffset dx="-0.5" dy="2"/>
<feColorMatrix type="matrix" values="0 0 0 0 0 0 0 0 0 0 0 0 0 0 0 0 0 0 1 0"/>
<feBlend mode="normal" in2="BackgroundImageFix" result="effect1_dropShadow_8_300"/>
<feBlend mode="normal" in="SourceGraphic" in2="effect1_dropShadow_8_300" result="shape"/>
</filter>
</defs>
</svg>
