<svg width="33" height="34" viewBox="0 0 33 34" fill="none" xmlns="http://www.w3.org/2000/svg">
<g filter="url(#filter0_d_510_194)">
<path d="M16.9998 32C25.8363 32 32.9998 24.8366 32.9998 16C32.9998 7.16344 25.8363 0 16.9998 0C8.1632 0 0.999756 7.16344 0.999756 16C0.999756 24.8366 8.1632 32 16.9998 32Z" fill="#CBC2BF"/>
</g>
<path d="M11.7876 6.12927V21.9075C11.7876 23.7888 12.5652 24.728 14.1188 24.728H14.4861V25.7911H6.10596V24.728H6.67844C8.2586 24.728 9.04964 23.7885 9.04964 21.9075V11.5658C9.04964 9.65952 8.36836 8.70464 7.0058 8.70464H6.18692V7.64223H6.51428C8.14916 7.64223 9.6218 7.13792 10.9293 6.1296L11.7876 6.12922V6.12927ZM22.2538 25.9133H19.3914V25.5869C19.3914 23.7607 19.9639 21.4582 21.1076 18.6794C22.8525 14.5357 24.4612 11.3475 25.9312 9.1136L26.0964 8.8272H19.3914C18.4103 8.8272 17.6676 9.03168 17.1639 9.43903C16.6602 9.84832 16.2701 10.5302 15.9975 11.4835H14.8951L16.1213 6.08799H16.8576C17.265 6.27935 18.0026 6.37439 19.065 6.37439H27.8938V7.928C27.5674 8.39168 27.1588 9.12672 26.6676 10.1347C25.7127 11.9891 24.8413 14.1414 24.0512 16.593C22.8788 20.2458 22.28 23.3533 22.2538 25.9133Z" fill="#0D0F0F"/>
<defs>
<filter id="filter0_d_510_194" x="0.499756" y="0" width="32.5" height="34" filterUnits="userSpaceOnUse" color-interpolation-filters="sRGB">
<feFlood flood-opacity="0" result="BackgroundImageFix"/>
<feColorMatrix in="SourceAlpha" type="matrix" values="0 0 0 0 0 0 0 0 0 0 0 0 0 0 0 0 0 0 127 0" result="hardAlpha"/>
<feOffset dx="-0.5" dy="2"/>
<feColorMatrix type="matrix" values="0 0 0 0 0 0 0 0 0 0 0 0 0 0 0 0 0 0 1 0"/>
<feBlend mode="normal" in2="BackgroundImageFix" result="effect1_dropShadow_510_194"/>
<feBlend mode="normal" in="SourceGraphic" in2="effect1_dropShadow_510_194" result="shape"/>
</filter>
</defs>
</svg>
