<svg width="33" height="34" viewBox="0 0 33 34" fill="none" xmlns="http://www.w3.org/2000/svg">
<g filter="url(#filter0_d_510_199)">
<path d="M16.9998 32C25.8363 32 32.9998 24.8366 32.9998 16C32.9998 7.16344 25.8363 0 16.9998 0C8.1632 0 0.999756 7.16344 0.999756 16C0.999756 24.8366 8.1632 32 16.9998 32Z" fill="#CBC2BF"/>
</g>
<path d="M12.512 6.14911V21.9686C12.512 23.8499 13.289 24.7894 14.8419 24.7894H15.2512V25.8522H6.83008V24.7894H7.36256C8.96928 24.7894 9.7744 23.8496 9.7744 21.9686V11.5866C9.7744 9.67871 9.09184 8.72608 7.72992 8.72608H6.91168V7.66304H7.23904C8.87392 7.66304 10.3459 7.15935 11.6534 6.14976H12.512V6.14922V6.14911ZM19.7469 15.8774L19.3383 15.5514C18.0576 14.6797 17.2125 13.9846 16.8051 13.4672C16.3146 12.7853 16.0682 11.9952 16.0682 11.0954C16.0682 9.5968 16.7082 8.37088 17.9888 7.41632C19.1331 6.51807 20.4976 6.0672 22.0775 6.0672C23.5495 6.0672 24.857 6.4496 26.0013 7.21152C27.2551 8.0848 27.8826 9.24256 27.8826 10.6861C27.8826 12.4307 26.6832 13.8346 24.2845 14.8973C27.0378 16.233 28.4131 18.0992 28.4131 20.4976C28.4131 22.2141 27.7456 23.5763 26.4099 24.5843C25.2663 25.4845 23.8074 25.9331 22.0355 25.9331C20.3463 25.9331 18.9024 25.5107 17.7031 24.6656C16.3142 23.7126 15.6186 22.4454 15.6186 20.8653C15.6186 19.257 16.3674 17.9494 17.8672 16.9395C18.2487 16.6694 18.8755 16.3149 19.7469 15.8774ZM20.8912 16.3283C18.9024 17.2547 17.9075 18.6982 17.9075 20.6611C17.9075 21.9152 18.3168 22.9299 19.1331 23.7066C19.952 24.4835 20.9731 24.871 22.2007 24.871C23.345 24.871 24.3114 24.5651 25.1031 23.9514C25.8931 23.3392 26.2874 22.4877 26.2874 21.3965C26.2874 19.735 25.2243 18.3994 23.0986 17.3914L20.8912 16.3283ZM23.1399 14.3658C24.9117 13.5757 25.7962 12.4048 25.7962 10.8515C25.7962 9.7888 25.4224 8.93023 24.6736 8.27487C23.9235 7.62111 23.0035 7.29504 21.9143 7.29504C21.0141 7.29504 20.2112 7.55296 19.5024 8.07007C18.7923 8.58912 18.44 9.29792 18.44 10.1962C18.44 11.287 18.9437 12.1587 19.952 12.8125C20.1696 12.9488 21.0695 13.3846 22.6496 14.1216L23.1399 14.3658Z" fill="#0D0F0F"/>
<defs>
<filter id="filter0_d_510_199" x="0.499756" y="0" width="32.5" height="34" filterUnits="userSpaceOnUse" color-interpolation-filters="sRGB">
<feFlood flood-opacity="0" result="BackgroundImageFix"/>
<feColorMatrix in="SourceAlpha" type="matrix" values="0 0 0 0 0 0 0 0 0 0 0 0 0 0 0 0 0 0 127 0" result="hardAlpha"/>
<feOffset dx="-0.5" dy="2"/>
<feColorMatrix type="matrix" values="0 0 0 0 0 0 0 0 0 0 0 0 0 0 0 0 0 0 1 0"/>
<feBlend mode="normal" in2="BackgroundImageFix" result="effect1_dropShadow_510_199"/>
<feBlend mode="normal" in="SourceGraphic" in2="effect1_dropShadow_510_199" result="shape"/>
</filter>
</defs>
</svg>
