<svg width="33" height="34" viewBox="0 0 33 34" fill="none" xmlns="http://www.w3.org/2000/svg">
<g filter="url(#filter0_d_510_198)">
<path d="M16.9998 32C25.8363 32 32.9998 24.8366 32.9998 16C32.9998 7.16344 25.8363 0 16.9998 0C8.1632 0 0.999756 7.16344 0.999756 16C0.999756 24.8366 8.1632 32 16.9998 32Z" fill="#CBC2BF"/>
</g>
<path d="M12.6185 6.23136V21.9283C12.6185 23.7808 13.3952 24.7072 14.9469 24.7072H15.3161V25.7702H6.97632V24.7072H7.50847C9.08863 24.7072 9.87871 23.7808 9.87871 21.9283V11.6272C9.87871 9.74592 9.20991 8.80608 7.87583 8.80608H7.0576V7.74368H7.38495C8.99167 7.74368 10.4502 7.24 11.7577 6.23168L12.6185 6.23133V6.23136ZM26.3936 20.2112V21.8461C26.3936 23.6723 27.0323 24.5856 28.3145 24.5856H28.8451V25.6467H21.0377V24.5856H21.6515C22.9325 24.5856 23.5728 23.6854 23.5728 21.888V20.2112H15.7238V18.5763L24.0221 6.47584H26.3939V18.8208H26.5984C27.3888 18.8208 27.974 18.1958 28.3548 16.9414H29.336L28.8454 20.2115L26.3936 20.2112V20.2112ZM24.2262 18.5763V8.27584L17.2771 18.5763H24.2262Z" fill="#0D0F0F"/>
<defs>
<filter id="filter0_d_510_198" x="0.499756" y="0" width="32.5" height="34" filterUnits="userSpaceOnUse" color-interpolation-filters="sRGB">
<feFlood flood-opacity="0" result="BackgroundImageFix"/>
<feColorMatrix in="SourceAlpha" type="matrix" values="0 0 0 0 0 0 0 0 0 0 0 0 0 0 0 0 0 0 127 0" result="hardAlpha"/>
<feOffset dx="-0.5" dy="2"/>
<feColorMatrix type="matrix" values="0 0 0 0 0 0 0 0 0 0 0 0 0 0 0 0 0 0 1 0"/>
<feBlend mode="normal" in2="BackgroundImageFix" result="effect1_dropShadow_510_198"/>
<feBlend mode="normal" in="SourceGraphic" in2="effect1_dropShadow_510_198" result="shape"/>
</filter>
</defs>
</svg>
