<svg width="33" height="34" viewBox="0 0 33 34" fill="none" xmlns="http://www.w3.org/2000/svg">
<g filter="url(#filter0_d_8_291)">
<path d="M17 32C25.8366 32 33 24.8366 33 16C33 7.16344 25.8366 0 17 0C8.16344 0 1 7.16344 1 16C1 24.8366 8.16344 32 17 32Z" fill="#CCC2C0"/>
<path d="M17 3.2C19.6437 8.82861 24.1714 13.3563 29.8 16C24.1714 18.6437 19.6437 23.1714 17 28.8C14.3563 23.1714 9.82862 18.6437 4.20001 16C9.82862 13.3563 14.3563 8.82861 17 3.2ZM17 8C15.3966 11.552 12.552 14.3966 9.00001 16C12.552 17.6034 15.3966 20.448 17 24C18.6034 20.448 21.4481 17.6034 25 16C21.4481 14.3966 18.6034 11.552 17 8Z" fill="#130C0E"/>
</g>
<defs>
<filter id="filter0_d_8_291" x="0.5" y="0" width="32.5" height="34" filterUnits="userSpaceOnUse" color-interpolation-filters="sRGB">
<feFlood flood-opacity="0" result="BackgroundImageFix"/>
<feColorMatrix in="SourceAlpha" type="matrix" values="0 0 0 0 0 0 0 0 0 0 0 0 0 0 0 0 0 0 127 0" result="hardAlpha"/>
<feOffset dx="-0.5" dy="2"/>
<feColorMatrix type="matrix" values="0 0 0 0 0 0 0 0 0 0 0 0 0 0 0 0 0 0 1 0"/>
<feBlend mode="normal" in2="BackgroundImageFix" result="effect1_dropShadow_8_291"/>
<feBlend mode="normal" in="SourceGraphic" in2="effect1_dropShadow_8_291" result="shape"/>
</filter>
</defs>
</svg>
