<svg width="33" height="34" viewBox="0 0 33 34" fill="none" xmlns="http://www.w3.org/2000/svg">
<g filter="url(#filter0_d_510_197)">
<path d="M16.9998 32C25.8363 32 32.9998 24.8366 32.9998 16C32.9998 7.16344 25.8363 0 16.9998 0C8.1632 0 0.999756 7.16344 0.999756 16C0.999756 24.8366 8.1632 32 16.9998 32Z" fill="#CBC2BF"/>
</g>
<path d="M12.0944 5.80129V22.0701C12.0944 24.0045 12.8995 24.9725 14.5063 24.9725H14.9149V26.0749H6.24994V24.9725H6.82178C8.45666 24.9725 9.2749 24.0045 9.2749 22.0701V11.4C9.2749 9.43873 8.57986 8.45761 7.18914 8.45761H6.3309V7.35393H6.65826C8.34818 7.35393 9.8733 6.83649 11.2359 5.80129H12.0944ZM17.8176 6.20865H25.2163C26.1712 6.20865 26.743 6.10113 26.9344 5.88225H27.9974L27.3837 8.66241H18.3504L17.4922 12.6675C18.7715 12.1501 19.9171 11.8906 20.9255 11.8906C22.888 11.8906 24.543 12.5462 25.8918 13.8538C27.2406 15.1606 27.9142 16.7955 27.9142 18.7587C27.9142 21.0474 27.0429 22.8861 25.2998 24.2774C23.663 25.5574 21.6867 26.1987 19.3719 26.1987C18.0093 26.1987 16.6743 25.9936 15.3667 25.585L15.7741 24.5638C16.8634 24.8627 17.8317 25.0125 18.6765 25.0125C20.3664 25.0125 21.8451 24.455 23.112 23.3376C24.3795 22.2202 25.0115 20.8288 25.0115 19.1677C25.0115 17.7238 24.5427 16.5376 23.6029 15.6115C22.6618 14.6851 21.4842 14.2214 20.0666 14.2214C18.7315 14.2214 17.4922 14.6851 16.3466 15.6115L15.6528 15.489L17.8176 6.20865Z" fill="#0D0F0F"/>
<defs>
<filter id="filter0_d_510_197" x="0.499756" y="0" width="32.5" height="34" filterUnits="userSpaceOnUse" color-interpolation-filters="sRGB">
<feFlood flood-opacity="0" result="BackgroundImageFix"/>
<feColorMatrix in="SourceAlpha" type="matrix" values="0 0 0 0 0 0 0 0 0 0 0 0 0 0 0 0 0 0 127 0" result="hardAlpha"/>
<feOffset dx="-0.5" dy="2"/>
<feColorMatrix type="matrix" values="0 0 0 0 0 0 0 0 0 0 0 0 0 0 0 0 0 0 1 0"/>
<feBlend mode="normal" in2="BackgroundImageFix" result="effect1_dropShadow_510_197"/>
<feBlend mode="normal" in="SourceGraphic" in2="effect1_dropShadow_510_197" result="shape"/>
</filter>
</defs>
</svg>
