<svg width="33" height="34" viewBox="0 0 33 34" fill="none" xmlns="http://www.w3.org/2000/svg">
<g filter="url(#filter0_d_8_274)">
<path d="M17 32C25.8366 32 33 24.8366 33 16C33 7.16344 25.8366 0 17 0C8.16344 0 1 7.16344 1 16C1 24.8366 8.16344 32 17 32Z" fill="#CBC2BF"/>
<path d="M13.6933 3.73334H25.2667L25.2133 6.02667C25.2133 6.02667 18.6 17.6 18.4933 27.9467H14.2267C13.8 20.5867 22.0667 7.41334 22.0667 7.41334L14.3333 7.46667C12.0933 7.46667 11.4533 9.01334 10.92 10.6133H8.73334L10.3867 3.36H11.8267C12.36 3.68 13 3.73334 13.6933 3.73334Z" fill="#130C0E"/>
</g>
<defs>
<filter id="filter0_d_8_274" x="0.5" y="0" width="32.5" height="34" filterUnits="userSpaceOnUse" color-interpolation-filters="sRGB">
<feFlood flood-opacity="0" result="BackgroundImageFix"/>
<feColorMatrix in="SourceAlpha" type="matrix" values="0 0 0 0 0 0 0 0 0 0 0 0 0 0 0 0 0 0 127 0" result="hardAlpha"/>
<feOffset dx="-0.5" dy="2"/>
<feColorMatrix type="matrix" values="0 0 0 0 0 0 0 0 0 0 0 0 0 0 0 0 0 0 1 0"/>
<feBlend mode="normal" in2="BackgroundImageFix" result="effect1_dropShadow_8_274"/>
<feBlend mode="normal" in="SourceGraphic" in2="effect1_dropShadow_8_274" result="shape"/>
</filter>
</defs>
</svg>
