<svg width="33" height="34" viewBox="0 0 33 34" fill="none" xmlns="http://www.w3.org/2000/svg">
<g filter="url(#filter0_d_8_253)">
<path d="M17 32C25.8366 32 33 24.8366 33 16C33 7.16344 25.8366 0 17 0C8.16344 0 1 7.16344 1 16C1 24.8366 8.16344 32 17 32Z" fill="#CBC2BF"/>
<path d="M17.2133 26.2933C18.6533 26.2933 21.4267 25.5467 21.4267 17.28C21.4267 8.42667 19.0267 5.70667 16.7867 5.70667C14.9733 5.70667 12.7333 7.09333 12.7333 14.72C12.7333 23.68 15.3467 26.2933 17.2133 26.2933ZM17.2133 28.4267C12.36 28.4267 8.46666 23.7333 8.51999 16.4267C8.51999 10.5067 11.72 3.46667 16.7867 3.46667C22.1733 3.46667 25.64 8.48 25.64 15.1467C25.64 26.5067 19.08 28.4267 17.16 28.4267" fill="#130C0E"/>
</g>
<defs>
<filter id="filter0_d_8_253" x="0.5" y="0" width="32.5" height="34" filterUnits="userSpaceOnUse" color-interpolation-filters="sRGB">
<feFlood flood-opacity="0" result="BackgroundImageFix"/>
<feColorMatrix in="SourceAlpha" type="matrix" values="0 0 0 0 0 0 0 0 0 0 0 0 0 0 0 0 0 0 127 0" result="hardAlpha"/>
<feOffset dx="-0.5" dy="2"/>
<feColorMatrix type="matrix" values="0 0 0 0 0 0 0 0 0 0 0 0 0 0 0 0 0 0 1 0"/>
<feBlend mode="normal" in2="BackgroundImageFix" result="effect1_dropShadow_8_253"/>
<feBlend mode="normal" in="SourceGraphic" in2="effect1_dropShadow_8_253" result="shape"/>
</filter>
</defs>
</svg>
