<svg width="33" height="34" viewBox="0 0 33 34" fill="none" xmlns="http://www.w3.org/2000/svg">
<g filter="url(#filter0_d_8_265)">
<path d="M17 32C25.8366 32 33 24.8366 33 16C33 7.16344 25.8366 0 17 0C8.16344 0 1 7.16344 1 16C1 24.8366 8.16344 32 17 32Z" fill="#CBC2BF"/>
<path d="M16.7333 18.72L16.7867 8.32L9.74666 18.72H16.7333ZM7.02666 21.2267L6.97333 18.72L17.5333 3.36H21.0533V18.72C22.0667 18.72 22.7067 17.12 22.8133 16.3733H24.84L24.1467 21.1733H21.1067V23.52C21.1067 24.96 21.6933 25.8133 23.08 25.8133H24.1467V27.8933H13.64L13.6933 25.8133H14.9733C15.88 25.8133 16.8933 25.2267 16.84 23.4133V21.12" fill="#130C0E"/>
</g>
<defs>
<filter id="filter0_d_8_265" x="0.5" y="0" width="32.5" height="34" filterUnits="userSpaceOnUse" color-interpolation-filters="sRGB">
<feFlood flood-opacity="0" result="BackgroundImageFix"/>
<feColorMatrix in="SourceAlpha" type="matrix" values="0 0 0 0 0 0 0 0 0 0 0 0 0 0 0 0 0 0 127 0" result="hardAlpha"/>
<feOffset dx="-0.5" dy="2"/>
<feColorMatrix type="matrix" values="0 0 0 0 0 0 0 0 0 0 0 0 0 0 0 0 0 0 1 0"/>
<feBlend mode="normal" in2="BackgroundImageFix" result="effect1_dropShadow_8_265"/>
<feBlend mode="normal" in="SourceGraphic" in2="effect1_dropShadow_8_265" result="shape"/>
</filter>
</defs>
</svg>
