<svg width="33" height="34" viewBox="0 0 33 34" fill="none" xmlns="http://www.w3.org/2000/svg">
<g filter="url(#filter0_d_8_262)">
<path d="M17 32C25.8366 32 33 24.8366 33 16C33 7.16344 25.8366 0 17 0C8.16344 0 1 7.16344 1 16C1 24.8366 8.16344 32 17 32Z" fill="#CBC2BF"/>
<path d="M26.28 19.0934C26.2267 25.8134 19.3467 28.4267 15.56 28.3734C11.3467 28.3201 9.37332 26.5067 9.37332 26.5067L10.6 24.8534C10.6 24.8534 12.6267 26.1867 15.5067 26.1867C17.16 26.1867 22.1733 24.6401 22.1733 19.5734C22.1733 16.8534 19.72 15.8401 18.4933 15.7867C17.4267 15.7867 16.2533 16.3734 14.6 17.3334L13.6933 15.3601C19.56 11.7867 20.4667 10.7201 20.4667 9.06672C20.4667 7.52006 19.08 6.50672 17.8533 6.50672C16.6267 6.50672 14.8667 6.82672 11.6133 10.3467L9.90665 8.96006C14.12 3.04005 17.8533 3.30672 18.9733 3.36005C21.48 3.46672 24.4667 4.80005 24.52 8.00006C24.52 9.28006 24.0933 10.7734 21.2133 12.9601C23.6667 13.2267 26.3333 15.4134 26.28 19.0934Z" fill="#130C0E"/>
</g>
<defs>
<filter id="filter0_d_8_262" x="0.5" y="0" width="32.5" height="34" filterUnits="userSpaceOnUse" color-interpolation-filters="sRGB">
<feFlood flood-opacity="0" result="BackgroundImageFix"/>
<feColorMatrix in="SourceAlpha" type="matrix" values="0 0 0 0 0 0 0 0 0 0 0 0 0 0 0 0 0 0 127 0" result="hardAlpha"/>
<feOffset dx="-0.5" dy="2"/>
<feColorMatrix type="matrix" values="0 0 0 0 0 0 0 0 0 0 0 0 0 0 0 0 0 0 1 0"/>
<feBlend mode="normal" in2="BackgroundImageFix" result="effect1_dropShadow_8_262"/>
<feBlend mode="normal" in="SourceGraphic" in2="effect1_dropShadow_8_262" result="shape"/>
</filter>
</defs>
</svg>
