<svg width="33" height="34" viewBox="0 0 33 34" fill="none" xmlns="http://www.w3.org/2000/svg">
<g filter="url(#filter0_d_510_195)">
<path d="M16.9998 32C25.8363 32 32.9998 24.8366 32.9998 16C32.9998 7.16344 25.8363 0 16.9998 0C8.1632 0 0.999756 7.16344 0.999756 16C0.999756 24.8366 8.1632 32 16.9998 32Z" fill="#CBC2BF"/>
</g>
<path d="M11.9789 5.86369V22.1319C11.9789 24.0669 12.784 25.0343 14.3907 25.0343H14.8V26.1373H6.13379V25.0343H6.70627C8.34115 25.0343 9.16003 24.0669 9.16003 22.1319V11.4618C9.16003 9.50113 8.46435 8.52001 7.07363 8.52001H6.21539V7.41569H6.54275C8.23267 7.41569 9.75843 6.89825 11.1203 5.86369H11.9789ZM18.3975 14.6506C19.8963 13.2355 21.408 12.5248 22.9351 12.5248C24.5699 12.5248 25.8906 13.1805 26.9002 14.488C27.8266 15.6867 28.289 17.1456 28.289 18.8618C28.289 20.7149 27.744 22.3367 26.6541 23.7255C25.4554 25.2791 23.9565 26.0554 22.1584 26.0554C20.0327 26.0554 18.3165 25.129 17.0071 23.2765C15.8627 21.6416 15.2903 19.7066 15.2903 17.4714C15.2903 15.0746 15.944 12.8727 17.2535 10.8695C18.5603 8.86689 20.3191 7.44321 22.5261 6.59809C23.7517 6.13377 25.0611 5.90241 26.4499 5.90241V6.96545C23.5082 7.10241 21.3136 8.27489 19.8698 10.4816C19.1325 11.6269 18.6419 13.0157 18.3975 14.6506ZM18.1927 16.6551C18.1664 17.0624 18.1514 17.472 18.1514 17.8807C18.1514 19.4608 18.424 20.9194 18.9703 22.2557C19.6784 23.9981 20.7127 24.8701 22.0765 24.8701C23.2477 24.8701 24.1341 24.2714 24.7328 23.072C25.169 22.1456 25.3866 21.0144 25.3866 19.6787C25.3866 18.2899 25.184 17.0906 24.7747 16.0832C24.1741 14.7194 23.2615 14.0387 22.0352 14.0387C20.5363 14.0387 19.2557 14.9107 18.1927 16.6551Z" fill="#0D0F0F"/>
<defs>
<filter id="filter0_d_510_195" x="0.499756" y="0" width="32.5" height="34" filterUnits="userSpaceOnUse" color-interpolation-filters="sRGB">
<feFlood flood-opacity="0" result="BackgroundImageFix"/>
<feColorMatrix in="SourceAlpha" type="matrix" values="0 0 0 0 0 0 0 0 0 0 0 0 0 0 0 0 0 0 127 0" result="hardAlpha"/>
<feOffset dx="-0.5" dy="2"/>
<feColorMatrix type="matrix" values="0 0 0 0 0 0 0 0 0 0 0 0 0 0 0 0 0 0 1 0"/>
<feBlend mode="normal" in2="BackgroundImageFix" result="effect1_dropShadow_510_195"/>
<feBlend mode="normal" in="SourceGraphic" in2="effect1_dropShadow_510_195" result="shape"/>
</filter>
</defs>
</svg>
