<svg width="33" height="34" viewBox="0 0 33 34" fill="none" xmlns="http://www.w3.org/2000/svg">
<g filter="url(#filter0_d_8_288)">
<path d="M17 32C25.8366 32 33 24.8366 33 16C33 7.16344 25.8366 0 17 0C8.16344 0 1 7.16344 1 16C1 24.8366 8.16344 32 17 32Z" fill="#CBC2BF"/>
<path d="M30.024 15.5573C30.024 17.3227 29.384 18.528 28.0987 19.168C27.7253 19.3547 26.5467 19.6107 24.568 19.9307C23.2827 20.144 22.6427 20.64 22.6427 21.4133V24.6613C22.6427 24.7947 22.6853 25.2107 22.7653 25.904L22.888 27.1893C22.888 27.5893 22.792 28.2453 22.6053 29.1573C22.0987 29.264 21.5067 29.3867 20.84 29.52C20.6267 28.7147 20.52 28.1707 20.52 27.872C20.52 27.7387 20.552 27.536 20.6213 27.2693C20.6853 27.0027 20.7227 26.8 20.7227 26.6667C20.7227 26.48 20.5573 25.9573 20.2213 25.104H19.5973C19.5173 25.2373 19.4853 25.4133 19.512 25.6267C19.6187 26.08 19.6613 26.4693 19.6347 26.7893C19.1813 27.1093 18.552 27.5413 17.7467 28.0747C17.56 28.0213 17.4907 27.9947 17.544 27.9947V25.1467C17.4907 25.0133 17.3573 24.96 17.144 24.9867H16.664L16.184 28.7573C15.8107 28.784 15.352 28.784 14.8187 28.7573C14.632 27.8773 14.296 26.5653 13.816 24.8267H13.496C13.2027 25.7653 13.0427 26.272 13.016 26.352C13.016 26.4587 13.048 26.6667 13.1173 26.976C13.1813 27.2853 13.2187 27.4933 13.2187 27.6C13.2187 27.68 13.192 27.8827 13.1387 28.2027L13.016 29.168C12.9627 29.2213 12.8933 29.248 12.8133 29.248C12.0133 29.248 11.4747 29.0453 11.208 28.6453C10.9413 28.2453 10.8347 27.68 10.888 26.96L11.208 22.144C11.208 22.064 11.2347 21.9573 11.288 21.824C11.3413 21.6907 11.368 21.5947 11.368 21.5413C11.368 21.328 11.1387 20.9013 10.6853 20.256C10.6053 20.2293 10.1893 20.1333 9.44266 19.9733C8.98933 19.8667 8.09333 19.68 6.75466 19.4133C4.90933 19.0667 3.98666 17.584 3.98666 14.96C3.98666 11.056 5.592 7.80268 8.80266 5.21069C8.936 5.93068 9.16533 6.89602 9.48533 8.10135C9.72533 8.15468 10.248 8.27735 11.048 8.46402C11.208 8.51735 12.024 8.81068 13.496 9.34935C12.744 8.89602 11.768 8.16002 10.568 7.14135C10.1147 6.60802 9.88533 5.71202 9.88533 4.45335C9.88533 4.16002 10.392 3.81335 11.4107 3.40802C12.3173 3.03469 13.0053 2.82136 13.4587 2.76802C14.904 2.58136 16.0133 2.48536 16.792 2.48536C20.136 2.48536 22.84 3.34402 24.8987 5.05602C24.232 5.83469 23.08 6.66135 21.448 7.54135C22.0933 7.56802 23.0267 7.31735 24.2587 6.77868C25.4907 6.24535 26.0133 5.97868 25.8213 5.97868C26.0347 5.97868 26.4667 6.40535 27.1067 7.26402C27.5867 7.90402 27.976 8.48002 28.2693 8.99201C29.1227 10.5173 29.6987 12.1653 29.9973 13.9307C29.9973 14.5493 30.008 14.9867 30.04 15.2533V15.5733L30.024 15.5573ZM14.6533 16.2773C14.6533 15.1253 14.152 14.0373 13.1493 13.008C12.1467 11.9787 11.0693 11.4613 9.91733 11.4613C8.89866 11.4613 8.00266 11.8933 7.22933 12.752C6.45066 13.616 6.06666 14.5707 6.06666 15.6213C6.06666 16.5387 6.50933 17.1307 7.38933 17.3973C7.94933 17.5573 8.73866 17.6533 9.75733 17.68H11.9653C13.7573 17.7067 14.6533 17.2373 14.6533 16.2773ZM19.0267 21.2533V20.0107C18.84 19.664 18.6533 19.3013 18.4667 18.928C18.3067 18.3947 18.0133 17.6427 17.5813 16.6827L17.1387 21.376C17.1387 21.7493 17.0587 21.936 16.8987 21.936C16.792 21.936 16.712 21.9093 16.6587 21.856C16.472 19.0187 16.376 17.792 16.376 18.1653V16.7627C16.3227 16.6827 16.2587 16.64 16.1787 16.64C15.2667 17.5787 14.8133 19.088 14.8133 21.1733C14.8133 22.3253 14.92 23.0347 15.1333 23.3013C15.3467 23.248 15.5867 23.152 15.8533 23.0187C15.96 22.9653 16.2693 22.9387 16.776 22.9387C17.2827 22.9387 17.9013 23.0987 18.6213 23.4187C18.888 23.4187 19.0213 22.6987 19.0213 21.2533H19.0267ZM28.0933 15.664C28.0933 14.5867 27.6933 13.6267 26.888 12.7787C26.0827 11.9307 25.16 11.5093 24.12 11.5093C22.9947 11.5093 21.944 12.0213 20.968 13.056C19.992 14.0853 19.5013 15.1627 19.5013 16.288C19.5013 17.2267 19.9547 17.6907 20.8667 17.6907H25.48C27.2187 17.664 28.088 16.992 28.088 15.6693" fill="#130C0E"/>
</g>
<defs>
<filter id="filter0_d_8_288" x="0.5" y="0" width="32.5" height="34" filterUnits="userSpaceOnUse" color-interpolation-filters="sRGB">
<feFlood flood-opacity="0" result="BackgroundImageFix"/>
<feColorMatrix in="SourceAlpha" type="matrix" values="0 0 0 0 0 0 0 0 0 0 0 0 0 0 0 0 0 0 127 0" result="hardAlpha"/>
<feOffset dx="-0.5" dy="2"/>
<feColorMatrix type="matrix" values="0 0 0 0 0 0 0 0 0 0 0 0 0 0 0 0 0 0 1 0"/>
<feBlend mode="normal" in2="BackgroundImageFix" result="effect1_dropShadow_8_288"/>
<feBlend mode="normal" in="SourceGraphic" in2="effect1_dropShadow_8_288" result="shape"/>
</filter>
</defs>
</svg>
