<svg width="33" height="34" viewBox="0 0 33 34" fill="none" xmlns="http://www.w3.org/2000/svg">
<g filter="url(#filter0_d_8_271)">
<path d="M17 32C25.8366 32 33 24.8366 33 16C33 7.16344 25.8366 0 17 0C8.16344 0 1 7.16344 1 16C1 24.8366 8.16344 32 17 32Z" fill="#CBC2BF"/>
<path d="M17.48 26.24C18.92 26.24 21 25.1733 21 20.3733C21 16.64 19.6133 14.0267 17.3733 14.0267C15.56 14.0267 13.9067 15.4667 13.16 16.96C12.84 22.1867 14.8133 26.1867 17.4267 26.1867L17.48 26.24ZM17.48 28.4267C12.6267 28.4267 8.89334 24 8.89334 17.6533C8.89334 13.3867 11.6133 3.78667 23.1333 3.46667V5.49333C14.6 5.81333 13.64 13.3333 13.64 13.3333C13.64 13.3333 15.6667 11.4133 18.6533 11.4133C20.4667 11.4133 25.2667 12.7467 25.2667 19.4133C25.2667 25.7067 20.84 28.4267 17.5333 28.4267" fill="#130C0E"/>
</g>
<defs>
<filter id="filter0_d_8_271" x="0.5" y="0" width="32.5" height="34" filterUnits="userSpaceOnUse" color-interpolation-filters="sRGB">
<feFlood flood-opacity="0" result="BackgroundImageFix"/>
<feColorMatrix in="SourceAlpha" type="matrix" values="0 0 0 0 0 0 0 0 0 0 0 0 0 0 0 0 0 0 127 0" result="hardAlpha"/>
<feOffset dx="-0.5" dy="2"/>
<feColorMatrix type="matrix" values="0 0 0 0 0 0 0 0 0 0 0 0 0 0 0 0 0 0 1 0"/>
<feBlend mode="normal" in2="BackgroundImageFix" result="effect1_dropShadow_8_271"/>
<feBlend mode="normal" in="SourceGraphic" in2="effect1_dropShadow_8_271" result="shape"/>
</filter>
</defs>
</svg>
