<svg width="33" height="34" viewBox="0 0 33 34" fill="none" xmlns="http://www.w3.org/2000/svg">
<g filter="url(#filter0_d_8_268)">
<path d="M17 32C25.8366 32 33 24.8366 33 16C33 7.16344 25.8366 0 17 0C8.16344 0 1 7.16344 1 16C1 24.8366 8.16344 32 17 32Z" fill="#CBC2BF"/>
<path d="M24.9467 18.9333C24.8933 25.6533 19.0267 28.3733 14.3867 28.3733C11.72 28.3733 9.05334 27.4133 9.05334 27.4133L9.85334 25.4933C9.85334 25.4933 11.72 26.1333 13.6933 26.1333C15.88 26.1333 20.68 24.5333 20.68 19.6267C20.68 16.9067 18.8667 14.1333 15.08 14.1333C13.1067 14.1333 11.3467 15.3067 10.8133 15.84L9.42668 15.5733L12.2 3.84H21.64C22.92 3.84 23.0267 3.68 23.1333 3.41333H25.0533L24.1467 7.52H13.4267L12.6267 11.2533C12.6267 11.2533 14.12 10.56 16.2533 10.6133C22.9733 10.6667 24.8933 16.48 24.8933 18.9867L24.9467 18.9333Z" fill="#130C0E"/>
</g>
<defs>
<filter id="filter0_d_8_268" x="0.5" y="0" width="32.5" height="34" filterUnits="userSpaceOnUse" color-interpolation-filters="sRGB">
<feFlood flood-opacity="0" result="BackgroundImageFix"/>
<feColorMatrix in="SourceAlpha" type="matrix" values="0 0 0 0 0 0 0 0 0 0 0 0 0 0 0 0 0 0 127 0" result="hardAlpha"/>
<feOffset dx="-0.5" dy="2"/>
<feColorMatrix type="matrix" values="0 0 0 0 0 0 0 0 0 0 0 0 0 0 0 0 0 0 1 0"/>
<feBlend mode="normal" in2="BackgroundImageFix" result="effect1_dropShadow_8_268"/>
<feBlend mode="normal" in="SourceGraphic" in2="effect1_dropShadow_8_268" result="shape"/>
</filter>
</defs>
</svg>
